<?xml version="1.0" encoding="iso-8859-1"?>
<!DOCTYPE svg PUBLIC "-//W3C//DTD SVG 1.1//EN" "http://www.w3.org/Graphics/SVG/1.1/DTD/svg11.dtd">
<svg 
 version="1.1" xmlns="http://www.w3.org/2000/svg" xmlns:xlink="http://www.w3.org/1999/xlink" x="0px" y="0px" width="512px"
	 height="512px" viewBox="0 0 512 512" style="enable-background:new 0 0 512 512;" xml:space="preserve"
><g id="afcae5a789ccd549f9c6e2a2f80b3401"><g></g><g fill="#ffffff"><path style="display: inline;" d="M511.5,468.347L373.445,341.894c62.404-84.03,52.382-203.343-26.489-275.583
		c-39.694-36.354-89.721-54.302-139.615-54.297C151.374,12.018,95.578,34.605,54.798,79.129
		c-77.135,84.215-71.4,215.02,12.823,292.159c39.69,36.354,89.712,54.297,139.606,54.297c49.249,0,98.357-17.516,137.225-52.056
		L482.52,499.986L511.5,468.347z M207.227,380.585c-40.521,0-79.306-15.09-109.214-42.483
		c-31.868-29.188-50.461-69.041-52.355-112.212c-1.898-43.176,13.135-84.5,42.322-116.368
		c30.563-33.367,74.068-52.505,119.371-52.51h0.004c40.517,0,79.297,15.087,109.209,42.481
		c65.78,60.252,70.275,162.791,10.021,228.58C296.021,361.444,252.516,380.585,207.227,380.585z M189.926,271.416
		c0-7.805,0.422-14.595,1.274-20.364c0.849-5.77,2.176-10.946,3.986-15.527c1.807-4.582,4.1-8.682,6.873-12.303
		c2.769-3.621,6.134-7.239,10.095-10.86l10.862-9.675c3.846-3.504,7.243-6.703,10.183-9.588c2.94-2.886,5.375-5.713,7.299-8.486
		c1.92-2.77,3.366-5.712,4.324-8.824c0.962-3.11,1.446-6.644,1.446-10.604c0-5.433-0.909-10.409-2.716-14.935
		c-1.81-4.524-4.412-8.372-7.808-11.54c-3.393-3.166-7.466-5.627-12.217-7.383c-4.754-1.753-10.015-2.63-15.785-2.63
		c-11.764,0-21.04,3.338-27.829,10.013s-11.202,16.519-13.236,29.528h-36.148c0.791-10.633,3.252-20.224,7.382-28.764
		c4.126-8.543,9.615-15.754,16.461-21.638c6.847-5.883,14.792-10.409,23.845-13.577c9.048-3.166,18.892-4.752,29.525-4.752
		c11.202,0,21.494,1.526,30.889,4.583c9.391,3.054,17.481,7.354,24.27,12.897c6.786,5.544,12.072,12.275,15.864,20.194
		c3.788,7.921,5.687,16.688,5.687,26.306c0,5.316-0.536,10.324-1.613,15.018c-1.076,4.695-2.799,9.276-5.177,13.745
		c-2.377,4.472-5.488,8.91-9.334,13.322c-3.844,4.412-8.543,8.883-14.082,13.407c-5.886,4.864-10.693,9.021-14.428,12.471
		c-3.735,3.454-6.701,6.959-8.908,10.523c-2.205,3.563-3.762,7.58-4.667,12.049c-0.905,4.472-1.419,10.268-1.529,17.394H189.926z
		 M227.771,333.359h-39.203v-36.824h39.203V333.359z"></path></g></g></svg>